<?xml version="1.0" encoding="UTF-8" standalone="no"?>
<!-- Created with Inkscape (http://www.inkscape.org/) -->

<svg
   width="210mm"
   height="297mm"
   viewBox="0 0 210 297"
   version="1.1"
   id="svg5"
   inkscape:version="1.2.1 (9c6d41e410, 2022-07-14)"
   sodipodi:docname="рисунок.svg"
   xmlns:inkscape="http://www.inkscape.org/namespaces/inkscape"
   xmlns:sodipodi="http://sodipodi.sourceforge.net/DTD/sodipodi-0.dtd"
   xmlns="http://www.w3.org/2000/svg"
   xmlns:svg="http://www.w3.org/2000/svg">
  <sodipodi:namedview
     id="namedview7"
     pagecolor="#ffffff"
     bordercolor="#000000"
     borderopacity="0.25"
     inkscape:showpageshadow="2"
     inkscape:pageopacity="0.0"
     inkscape:pagecheckerboard="0"
     inkscape:deskcolor="#d1d1d1"
     inkscape:document-units="mm"
     showgrid="false"
     inkscape:zoom="1.104894"
     inkscape:cx="352.06996"
     inkscape:cy="560.23472"
     inkscape:window-width="1920"
     inkscape:window-height="1057"
     inkscape:window-x="-8"
     inkscape:window-y="1072"
     inkscape:window-maximized="1"
     inkscape:current-layer="layer1" />
  <defs
     id="defs2" />
  <g
     inkscape:label="Шар 1"
     inkscape:groupmode="layer"
     id="layer1">
    <ellipse
       style="fill:#ff9955;stroke-width:0.264583"
       id="path111"
       cx="104.30558"
       cy="139.35634"
       rx="54.523376"
       ry="77.0439" />
    <path
       style="fill:#000000;stroke-width:0.0704635"
       id="path729"
       sodipodi:type="arc"
       sodipodi:cx="87.943481"
       sodipodi:cy="99.677261"
       sodipodi:rx="1.7361202"
       sodipodi:ry="2.4545155"
       sodipodi:start="2.9454444"
       sodipodi:end="2.9432771"
       sodipodi:arc-type="arc"
       d="m 86.240652,100.15563 a 1.7361202,2.4545155 0 0 1 1.363549,-2.885558 1.7361202,2.4545155 0 0 1 2.041742,1.926213 1.7361202,2.4545155 0 0 1 -1.361337,2.887645 1.7361202,2.4545155 0 0 1 -2.043217,-1.92308"
       sodipodi:open="true" />
    <path
       style="fill:#000000;stroke-width:0.0704635"
       id="path729-6"
       sodipodi:type="arc"
       sodipodi:cx="117.81673"
       sodipodi:cy="99.37793"
       sodipodi:rx="1.7361202"
       sodipodi:ry="2.4545155"
       sodipodi:start="2.9454444"
       sodipodi:end="2.9432771"
       sodipodi:arc-type="arc"
       d="m 116.1139,99.856297 a 1.7361202,2.4545155 0 0 1 1.36355,-2.885557 1.7361202,2.4545155 0 0 1 2.04174,1.926214 1.7361202,2.4545155 0 0 1 -1.36134,2.887646 1.7361202,2.4545155 0 0 1 -2.04322,-1.923086"
       sodipodi:open="true" />
    <path
       style="fill:#ff9955;stroke-width:0.264583"
       id="path856"
       d="m 64.445332,192.89083 c -1.067459,3.25769 -2.043322,6.54479 -2.769632,9.89595 -0.649592,2.57884 -0.291105,5.19826 0.07558,7.78583 0.311939,2.03602 0.7043,4.05571 1.173202,6.0609 0.387149,1.53456 0.853036,3.04607 1.163037,4.5992 0.177721,0.93328 0.17262,1.87787 0.434838,2.79312 0.40024,1.24102 0.85358,2.46234 1.218231,3.71469 0.324686,1.10401 0.75537,2.15339 1.341806,3.14191 0.561001,0.84157 0.991764,1.75208 1.350372,2.69458 0.332901,0.91214 0.651018,1.82921 0.943039,2.75541 0.303024,0.87493 0.538519,1.77228 0.737668,2.67609 0.09037,0.50701 0.03652,0.25476 0.161796,0.75671 0,0 3.564792,1.68903 3.564792,1.68903 v 0 c -0.160782,-0.46254 -0.09774,-0.21945 -0.181967,-0.73109 -0.183719,-0.91944 -0.429125,-1.83259 -0.737164,-2.71767 -0.287954,-0.92935 -0.58938,-1.85415 -0.919072,-2.76878 -0.357963,-0.96341 -0.762993,-1.91163 -1.33849,-2.76904 -0.107173,-0.17306 -0.465667,-0.7439 -0.563185,-0.93228 -0.351051,-0.67819 -0.557207,-1.42099 -0.84234,-2.12624 -0.360781,-1.24478 -0.782794,-2.46843 -1.175229,-3.70308 -0.05061,-0.14883 -0.223562,-0.63768 -0.249883,-0.794 -0.02439,-0.14484 -0.01429,-0.29345 -0.02551,-0.4399 -0.0395,-0.51601 -0.115499,-1.02801 -0.209137,-1.5368 -0.310883,-1.56493 -0.778423,-3.08886 -1.192475,-4.62841 -0.47584,-2.00526 -0.901038,-4.01949 -1.234937,-6.05396 -0.381913,-2.55018 -0.741365,-5.13128 -0.172178,-7.68681 0.655688,-3.32189 1.501026,-6.63251 2.875989,-9.73701 0,0 -3.429158,-1.93835 -3.429158,-1.93835 z" />
    <path
       style="fill:#ff9955;stroke-width:0.264583"
       id="path858"
       d="m 139.36178,190.84627 c -1.37332,1.9246 -2.63258,3.92359 -3.82111,5.96664 -1.2656,2.29593 -2.40976,4.65338 -3.45255,7.05783 -0.96883,2.24924 -1.86746,4.53497 -2.60593,6.87075 -0.70075,2.48649 -0.79947,5.08698 -0.88955,7.65351 -0.0624,1.92465 -0.0741,3.85039 -0.0586,5.77582 0.0307,1.6748 -0.0293,3.35073 0.023,5.02497 0.11065,0.94131 0.15251,1.91255 0.45643,2.81629 0.39431,0.83995 0.96782,1.58506 1.52492,2.323 0.41665,0.53314 0.7613,1.11704 1.16437,1.6599 0.36365,0.43689 0.63037,0.94058 0.92761,1.42317 0.0509,0.073 0.10186,0.14593 0.1528,0.21889 0,0 3.64419,1.55253 3.64419,1.55253 v 0 c -0.0594,-0.0621 -0.11883,-0.12423 -0.17825,-0.18635 -0.1921,-0.27083 -0.36757,-0.55559 -0.53099,-0.84481 -0.0474,-0.0838 -0.16582,-0.35788 -0.23009,-0.44371 -0.0411,-0.0548 -0.0983,-0.0955 -0.14743,-0.14322 -0.39291,-0.56445 -0.8139,-1.11032 -1.19229,-1.68648 -0.5574,-0.70738 -1.09475,-1.44199 -1.55547,-2.21475 -0.38892,-0.84885 -0.39821,-1.81098 -0.55685,-2.7203 -0.0893,-1.67302 -0.0343,-3.35086 -0.0575,-5.02559 0.003,-1.92949 -0.0316,-3.85903 0.004,-5.78841 0.0738,-2.53527 0.16588,-5.09936 0.84914,-7.55804 0.71867,-2.32896 1.63262,-4.59316 2.58232,-6.83664 1.04493,-2.38708 2.13313,-4.75566 3.41817,-7.02561 1.18906,-2.0231 2.396,-4.04783 3.91634,-5.84522 0,0 -3.38671,-2.02417 -3.38671,-2.02417 z" />
    <path
       style="fill:#ff9955;stroke-width:0.264583"
       id="path862"
       d="m 49.037991,142.04069 c -1.593456,0.0326 -3.187518,0.0241 -4.781201,0.0162 -1.337567,-0.0488 -2.670574,0.0386 -4.004934,0.11531 -1.008399,0.0611 -2.018115,0.0919 -3.028183,0.10345 -0.90919,0.008 -1.818328,0.0149 -2.72756,0.0129 -0.99848,-10e-4 -1.996959,-0.003 -2.995438,-0.004 -1.06086,0.0446 -2.011984,0.034 -3.008043,-0.36637 -1.586296,-0.95614 1.195755,0.72675 2.60476,1.43255 0.144745,0.0725 -0.239491,-0.21885 -0.346359,-0.34045 -0.388024,-0.44153 -0.70676,-0.95195 -1.026583,-1.4428 -0.533572,-0.81264 -0.951307,-1.69134 -1.437632,-2.53116 -0.481338,-0.77026 -0.878086,-1.58636 -1.262306,-2.40784 -0.509243,-0.90811 -0.786023,-1.88401 -0.995271,-2.89461 -0.180229,-0.80713 -0.239777,-1.63237 -0.36493,-2.4482 -0.172202,-1.17664 -0.300049,-2.357 -0.373626,-3.5438 -0.02623,-1.0969 -0.07148,-2.18326 -0.239092,-3.26821 -0.127232,-0.90889 -0.387298,-1.79021 -0.558586,-2.69044 -0.21196,-1.19226 -0.391802,-2.38928 -0.623213,-3.57812 -0.177278,-0.83316 -0.409364,-1.65339 -0.593105,-2.48487 -0.190081,-0.7825 -0.349185,-1.57191 -0.524261,-2.35782 -0.104345,-0.43612 -0.179184,-0.87788 -0.249372,-1.32044 0,0 -3.533679,-1.73253 -3.533679,-1.73253 v 0 c 0.06833,0.45036 0.135575,0.90139 0.242471,1.3447 0.171007,0.78375 0.313734,1.57335 0.514188,2.35031 0.173955,0.83815 0.412891,1.66034 0.616663,2.49163 0.249984,1.18205 0.446074,2.37181 0.621754,3.56704 0.15089,0.9043 0.401195,1.78383 0.562266,2.68589 0.185565,1.07537 0.253462,2.15067 0.272871,3.24185 0.07725,1.1891 0.185306,2.37386 0.326818,3.55686 0.116734,0.82658 0.207237,1.65669 0.3672,2.47678 0.223555,1.0291 0.418403,2.05352 0.962226,2.977 0.382208,0.82868 0.746237,1.66757 1.235681,2.44142 0.517158,0.83067 0.916044,1.72849 1.453615,2.54782 1.444934,2.36274 2.199767,3.04001 5.450477,4.34201 1.011436,0.28828 2.038313,0.28741 3.083923,0.26151 0.99628,-2.7e-4 1.992556,-8e-4 2.988836,-0.001 0.916935,-0.002 1.834052,0.0127 2.750828,-0.006 1.000556,-0.029 2.000623,-0.0738 2.999282,-0.14278 1.327764,-0.0791 2.654747,-0.11833 3.985091,-0.10157 1.608534,-0.008 3.217418,-0.0159 4.825738,0.0162 0,0 -3.191314,-2.31863 -3.191314,-2.31863 z" />
    <path
       style="fill:#ff9955;stroke-width:0.264583"
       id="path864"
       d="m 159.11455,141.08497 c 1.51798,-0.36241 3.03836,-0.72709 4.56275,-1.06446 1.5755,-0.40723 3.15424,-0.80845 4.75125,-1.12291 0.97246,-0.19417 1.96143,-0.26515 2.95083,-0.28876 0.57727,0.0443 1.03861,-0.1489 1.50026,-0.4683 0.69136,-0.43364 1.29075,-0.98586 1.93229,-1.4855 0.48882,-0.39878 1.0861,-0.63972 1.52615,-1.09962 0.16908,-0.17671 0.29491,-0.3694 0.435,-0.56771 0.0532,-0.0927 0.11108,-0.18301 0.15969,-0.27827 0.16485,-0.32302 0.0973,-0.26229 0.25623,-0.62206 0.23325,-0.52802 0.5298,-1.02531 0.82374,-1.52057 0.7232,-1.09552 1.05746,-2.12732 1.36152,-3.38203 0.38885,-1.66441 0.76928,-3.32903 1.05455,-5.01482 0.23614,-1.4605 0.29844,-2.94052 0.35306,-4.41661 0.047,-1.52705 0.0683,-3.05477 0.0815,-4.58243 -0.006,-1.42489 -0.0146,-2.84971 -0.004,-4.27461 0.034,-0.92806 -0.0437,-1.85151 -0.23699,-2.75858 -0.13935,-0.73186 -0.44158,-1.41312 -0.7269,-2.09632 -0.58489,-1.05999 -0.59257,-2.27472 -0.65882,-3.45371 -0.0962,-1.25477 0.0569,-2.54699 -0.25155,-3.778383 -0.26526,-0.694077 -0.93772,-1.102842 -1.48795,-1.560621 -1.10717,-0.778592 -2.1221,-1.647439 -3.07095,-2.61175 -1.03088,-1.08158 -2.06717,-2.156994 -3.12566,-3.211703 -0.58953,-0.597961 -1.06502,-1.291127 -1.50332,-2.003332 -0.0529,-0.08143 -0.10575,-0.162854 -0.15862,-0.24428 0,0 -3.62135,-1.593045 -3.62135,-1.593045 v 0 c 0.0527,0.08403 0.10548,0.168053 0.15822,0.252079 0.40227,0.559996 -0.042,-0.08152 0.33781,0.546169 0.33434,0.552556 0.77017,1.0474 1.17333,1.54823 1.07485,1.051102 2.13139,2.118966 3.16033,3.215034 0.91695,0.976329 1.87372,1.899518 3.00647,2.626225 0.30203,0.266192 0.60936,0.520084 0.92497,0.769888 0.15789,0.124965 0.33428,0.229486 0.474,0.374483 0.0612,0.06355 0.10411,0.142549 0.15616,0.213823 0.48102,1.105133 0.26388,2.548022 0.38153,3.722393 0.0502,1.1835 -0.0537,2.46129 0.51044,3.54147 0.30718,0.6568 0.60831,1.32927 0.77637,2.03621 0.21609,0.87955 0.31349,1.78889 0.30585,2.69458 0.0122,1.42358 0.007,2.84712 -7.9e-4,4.2707 0.006,1.52938 0.0102,3.05915 -0.0401,4.58794 -0.058,1.45944 -0.15181,2.91534 -0.3615,4.36194 -0.2344,1.68217 -0.58407,3.3422 -1.0334,4.98056 -0.32902,1.16795 -0.60109,2.26148 -1.30726,3.28413 -0.47124,0.76772 -0.90836,1.54761 -1.27068,2.37058 -0.11831,0.16828 -0.23523,0.34911 -0.38051,0.49667 -0.43523,0.44208 -1.02722,0.68493 -1.49475,1.08751 -0.63468,0.49681 -1.25507,1.01423 -1.94669,1.43224 -0.42839,0.24903 -0.87199,0.31901 -1.36856,0.30437 -0.98926,0.0523 -1.9763,0.1547 -2.9444,0.37281 -1.5889,0.34428 -3.16615,0.74047 -4.74271,1.13687 -1.54163,0.35105 -3.081,0.71133 -4.62574,1.04831 0,0 3.24912,2.22517 3.24912,2.22517 z" />
    <path
       style="fill:#ff9955;stroke-width:0.264583"
       id="path866"
       d="m 23.874918,112.30943 c -1.138827,-1.53524 -2.516323,-2.89109 -3.870002,-4.23739 -1.294044,-1.24516 -2.576492,-2.50212 -3.870419,-3.74743 -0.721056,-0.73889 -1.554026,-1.3669 -2.221786,-2.15644 -0.512345,-0.62455 -0.939022,-1.30952 -1.366199,-1.99304 -0.405127,-0.630034 -0.207759,-0.316494 -0.592489,-0.940379 0,0 -3.5836171,-1.585545 -3.5836171,-1.585545 v 0 c 0.3798255,0.631878 0.1848281,0.317524 0.5851842,0.942935 0.430797,0.683832 0.8130786,1.400921 1.3351069,2.022159 0.618322,0.86665 1.501055,1.4757 2.244992,2.22933 1.317987,1.24915 2.612453,2.52197 3.934609,3.76667 1.327442,1.30468 2.654637,2.63817 3.794237,4.11031 0,0 3.610383,1.58882 3.610383,1.58882 z" />
    <path
       style="fill:#000000;stroke-width:0.19035"
       id="path868"
       sodipodi:type="arc"
       sodipodi:cx="-105.00535"
       sodipodi:cy="-122.20729"
       sodipodi:rx="20.474249"
       sodipodi:ry="8.927537"
       sodipodi:start="2.9454444"
       sodipodi:end="0.19803621"
       sodipodi:open="true"
       sodipodi:arc-type="arc"
       d="m -125.08699,-120.46738 a 20.474249,8.927537 0 0 1 8.71862,-9.16634 20.474249,8.927537 0 0 1 22.758181,0.009 20.474249,8.927537 0 0 1 8.678917,9.1735"
       transform="scale(-1)" />
  </g>
</svg>
